<?xml version="1.0" encoding="UTF-8" standalone="no"?>
<!-- Created with Inkscape (http://www.inkscape.org/) -->

<svg
   xmlns:dc="http://purl.org/dc/elements/1.1/"
   xmlns:cc="http://creativecommons.org/ns#"
   xmlns:rdf="http://www.w3.org/1999/02/22-rdf-syntax-ns#"
   xmlns:svg="http://www.w3.org/2000/svg"
   xmlns="http://www.w3.org/2000/svg"
   xmlns:xlink="http://www.w3.org/1999/xlink"
   xmlns:sodipodi="http://sodipodi.sourceforge.net/DTD/sodipodi-0.dtd"
   xmlns:inkscape="http://www.inkscape.org/namespaces/inkscape"
   width="744.09448819"
   height="1052.3622047"
   id="svg11123"
   version="1.1"
   inkscape:version="0.48.3.1 r9886"
   sodipodi:docname="Новый документ 6">
  <defs
     id="defs11125">
    <linearGradient
       inkscape:collect="always"
       xlink:href="#linearGradient5048"
       id="linearGradient5061"
       gradientUnits="userSpaceOnUse"
       gradientTransform="matrix(2.774389,0,0,1.969706,-1892.179,-872.8854)"
       x1="302.85715"
       y1="366.64789"
       x2="302.85715"
       y2="609.50507" />
    <linearGradient
       id="linearGradient5048">
      <stop
         id="stop5050"
         offset="0"
         style="stop-color:black;stop-opacity:0;" />
      <stop
         style="stop-color:black;stop-opacity:1;"
         offset="0.5"
         id="stop5056" />
      <stop
         id="stop5052"
         offset="1"
         style="stop-color:black;stop-opacity:0;" />
    </linearGradient>
    <radialGradient
       inkscape:collect="always"
       xlink:href="#linearGradient5060"
       id="radialGradient5063"
       gradientUnits="userSpaceOnUse"
       gradientTransform="matrix(2.774389,0,0,1.969706,-1891.633,-872.8854)"
       cx="605.71429"
       cy="486.64789"
       fx="605.71429"
       fy="486.64789"
       r="117.14286" />
    <linearGradient
       id="linearGradient5060"
       inkscape:collect="always">
      <stop
         id="stop5062"
         offset="0"
         style="stop-color:black;stop-opacity:1;" />
      <stop
         id="stop5064"
         offset="1"
         style="stop-color:black;stop-opacity:0;" />
    </linearGradient>
    <radialGradient
       inkscape:collect="always"
       xlink:href="#linearGradient5060"
       id="radialGradient5065"
       gradientUnits="userSpaceOnUse"
       gradientTransform="matrix(-2.774389,0,0,1.969706,112.7623,-872.8854)"
       cx="605.71429"
       cy="486.64789"
       fx="605.71429"
       fy="486.64789"
       r="117.14286" />
    <radialGradient
       inkscape:collect="always"
       xlink:href="#linearGradient2601"
       id="radialGradient5120"
       gradientUnits="userSpaceOnUse"
       gradientTransform="matrix(2.883137,0,0,2.1214507,56.61223,325.35488)"
       cx="27.216267"
       cy="35.673447"
       fx="27.216267"
       fy="35.673447"
       r="19.57143" />
    <linearGradient
       id="linearGradient2601">
      <stop
         style="stop-color:#5d5d5d;stop-opacity:1.0000000;"
         offset="0.0000000"
         id="stop2603" />
      <stop
         style="stop-color:#444444;stop-opacity:1.0000000;"
         offset="1.0000000"
         id="stop2605" />
    </linearGradient>
    <linearGradient
       inkscape:collect="always"
       xlink:href="#linearGradient2613"
       id="linearGradient5117"
       gradientUnits="userSpaceOnUse"
       gradientTransform="matrix(1,0,0,0.99316669,121.58045,377.48209)"
       x1="5.463501"
       y1="13.142847"
       x2="21.536488"
       y2="49.142849" />
    <linearGradient
       inkscape:collect="always"
       id="linearGradient2613">
      <stop
         style="stop-color:#ffffff;stop-opacity:1;"
         offset="0"
         id="stop2615" />
      <stop
         style="stop-color:#ffffff;stop-opacity:0;"
         offset="1"
         id="stop2617" />
    </linearGradient>
    <linearGradient
       inkscape:collect="always"
       xlink:href="#linearGradient2502"
       id="linearGradient5071"
       gradientUnits="userSpaceOnUse"
       x1="2.7612331"
       y1="6.1102505"
       x2="18.772917"
       y2="18.693317" />
    <linearGradient
       id="linearGradient2502">
      <stop
         style="stop-color:#fdfdfd;stop-opacity:1;"
         offset="0"
         id="stop2504" />
      <stop
         style="stop-color:#d4d4d4;stop-opacity:1.0000000;"
         offset="1.0000000"
         id="stop2506" />
    </linearGradient>
    <linearGradient
       inkscape:collect="always"
       xlink:href="#linearGradient2502"
       id="linearGradient5107"
       gradientUnits="userSpaceOnUse"
       gradientTransform="matrix(0.99965583,0,0,0.9935131,32.419997,394.52794)"
       x1="2.7612331"
       y1="6.1102505"
       x2="18.772917"
       y2="18.693317" />
    <linearGradient
       id="linearGradient11071">
      <stop
         style="stop-color:#fdfdfd;stop-opacity:1;"
         offset="0"
         id="stop11073" />
      <stop
         style="stop-color:#d4d4d4;stop-opacity:1.0000000;"
         offset="1.0000000"
         id="stop11075" />
    </linearGradient>
    <linearGradient
       inkscape:collect="always"
       xlink:href="#linearGradient3593"
       id="linearGradient5099"
       gradientUnits="userSpaceOnUse"
       gradientTransform="matrix(1,0,0,0.99316669,121.58045,377.48209)"
       x1="10.678571"
       y1="15.928572"
       x2="7.9285712"
       y2="11.107142" />
    <linearGradient
       id="linearGradient3593">
      <stop
         style="stop-color:#939393;stop-opacity:1;"
         offset="0"
         id="stop3595" />
      <stop
         style="stop-color:#d9d9d9;stop-opacity:1.0000000;"
         offset="1.0000000"
         id="stop3597" />
    </linearGradient>
    <linearGradient
       inkscape:collect="always"
       xlink:href="#linearGradient3593"
       id="linearGradient11308"
       gradientUnits="userSpaceOnUse"
       gradientTransform="matrix(1,0,0,0.99316669,309.58563,374.78254)"
       x1="10.678571"
       y1="15.928572"
       x2="7.9285712"
       y2="11.107142" />
    <linearGradient
       inkscape:collect="always"
       xlink:href="#linearGradient2502"
       id="linearGradient11316"
       gradientUnits="userSpaceOnUse"
       gradientTransform="matrix(0.99965583,0,0,0.9935131,216.16135,433.88411)"
       x1="2.7612331"
       y1="6.1102505"
       x2="18.772917"
       y2="18.693317" />
    <linearGradient
       inkscape:collect="always"
       xlink:href="#linearGradient2613"
       id="linearGradient11326"
       gradientUnits="userSpaceOnUse"
       gradientTransform="matrix(1,0,0,0.99316669,309.58563,374.78254)"
       x1="5.463501"
       y1="13.142847"
       x2="21.536488"
       y2="49.142849" />
    <radialGradient
       inkscape:collect="always"
       xlink:href="#linearGradient2601"
       id="radialGradient11329"
       gradientUnits="userSpaceOnUse"
       gradientTransform="matrix(2.883137,0,0,2.1214507,244.61741,322.65533)"
       cx="27.216267"
       cy="35.673447"
       fx="27.216267"
       fy="35.673447"
       r="19.57143" />
  </defs>
  <sodipodi:namedview
     id="base"
     pagecolor="#ffffff"
     bordercolor="#666666"
     borderopacity="1.0"
     inkscape:pageopacity="0.0"
     inkscape:pageshadow="2"
     inkscape:zoom="4.5099499"
     inkscape:cx="394.5471"
     inkscape:cy="611.38625"
     inkscape:document-units="px"
     inkscape:current-layer="layer1"
     showgrid="false"
     inkscape:window-width="1920"
     inkscape:window-height="1026"
     inkscape:window-x="-2"
     inkscape:window-y="31"
     inkscape:window-maximized="1" />
  <metadata
     id="metadata11128">
    <rdf:RDF>
      <cc:Work
         rdf:about="">
        <dc:format>image/svg+xml</dc:format>
        <dc:type
           rdf:resource="http://purl.org/dc/dcmitype/StillImage" />
        <dc:title></dc:title>
      </cc:Work>
    </rdf:RDF>
  </metadata>
  <g
     inkscape:label="Layer 1"
     inkscape:groupmode="layer"
     id="layer1">
    <g
       id="g11633">
      <g
         transform="matrix(0.0233489,0,0,0.02072499,354.92441,416.36433)"
         id="g6707">
        <rect
           style="opacity:0.40206185;color:#000000;fill:url(#linearGradient5061);fill-opacity:1;fill-rule:nonzero;stroke:none;stroke-width:1;marker:none;visibility:visible;display:inline;overflow:visible"
           id="rect6709"
           width="1339.6335"
           height="478.35718"
           x="-1559.2523"
           y="-150.69685" />
        <path
           inkscape:connector-curvature="0"
           style="opacity:0.40206185;color:#000000;fill:url(#radialGradient5063);fill-opacity:1;fill-rule:nonzero;stroke:none;stroke-width:1;marker:none;visibility:visible;display:inline;overflow:visible"
           d="m -219.61876,-150.68038 c 0,0 0,478.33079 0,478.33079 142.874166,0.90045 345.40022,-107.16966 345.40014,-239.196175 0,-132.026537 -159.436816,-239.134595 -345.40014,-239.134615 z"
           id="path6711"
           sodipodi:nodetypes="cccc" />
        <path
           inkscape:connector-curvature="0"
           sodipodi:nodetypes="cccc"
           id="path6713"
           d="m -1559.2523,-150.68038 c 0,0 0,478.33079 0,478.33079 -142.8742,0.90045 -345.4002,-107.16966 -345.4002,-239.196175 0,-132.026537 159.4368,-239.134595 345.4002,-239.134615 z"
           style="opacity:0.40206185;color:#000000;fill:url(#radialGradient5065);fill-opacity:1;fill-rule:nonzero;stroke:none;stroke-width:1;marker:none;visibility:visible;display:inline;overflow:visible" />
      </g>
      <rect
         ry="1.1350477"
         rx="1.1428572"
         y="391.24072"
         x="315.01422"
         height="27.808664"
         width="38.14286"
         id="rect1440"
         style="color:#000000;fill:url(#radialGradient11329);fill-opacity:1;fill-rule:nonzero;stroke:#1b1b1b;stroke-width:0.9965775;stroke-linecap:butt;stroke-linejoin:miter;stroke-miterlimit:4;stroke-opacity:1;stroke-dasharray:none;stroke-dashoffset:0;marker:none;visibility:visible;display:block" />
      <rect
         style="opacity:0.31155778;color:#000000;fill:none;stroke:url(#linearGradient11326);stroke-width:0.99657714;stroke-linecap:butt;stroke-linejoin:miter;stroke-miterlimit:4;stroke-opacity:1;stroke-dasharray:none;stroke-dashoffset:0;marker:none;visibility:visible;display:block"
         id="rect2609"
         width="36.072987"
         height="25.882143"
         x="315.97769"
         y="392.15234"
         rx="0.27372196"
         ry="0.27185154" />
      <g
         transform="matrix(-0.97271,0.23043751,0.232023,0.96606317,355.37142,379.85825)"
         id="g4376">
        <rect
           transform="matrix(0.974407,-0.22479,0.22479,0.974407,0,0)"
           ry="1.1428572"
           rx="1.1428572"
           y="10.35317"
           x="1.7052064"
           height="6.50879"
           width="39.805996"
           id="rect4362"
           style="color:#000000;fill:url(#linearGradient5071);fill-opacity:1;fill-rule:nonzero;stroke:#2b2b2b;stroke-width:1.00000024;stroke-linecap:butt;stroke-linejoin:miter;stroke-miterlimit:4;stroke-opacity:1;stroke-dasharray:none;stroke-dashoffset:0;marker:none;visibility:visible;display:block" />
        <path
           inkscape:connector-curvature="0"
           sodipodi:nodetypes="ccccc"
           id="path4364"
           d="M 9.1896391,8.9691823 6.7610675,15.540611 11.475352,14.254897 13.903923,7.9691824 9.1896391,8.9691823 z"
           style="fill:#000000;fill-opacity:1;fill-rule:evenodd;stroke:none" />
        <path
           inkscape:connector-curvature="0"
           style="fill:#000000;fill-opacity:1;fill-rule:evenodd;stroke:none"
           d="m 18.332496,6.8977538 -2.285715,6.5000002 4.714286,-1.142857 2.285714,-6.3571431 -4.714285,0.9999999 z"
           id="path4366"
           sodipodi:nodetypes="ccccc" />
        <path
           inkscape:connector-curvature="0"
           sodipodi:nodetypes="ccccc"
           id="path4368"
           d="M 27.903923,4.6834682 25.618208,11.11204 30.332494,9.9691828 32.618208,3.6834683 27.903923,4.6834682 z"
           style="fill:#000000;fill-opacity:1;fill-rule:evenodd;stroke:none" />
        <path
           inkscape:connector-curvature="0"
           sodipodi:nodetypes="ccccccc"
           id="path4370"
           d="m 39.412852,2.0182896 c 0.229074,0.1560539 0.401242,0.3636209 0.46875,0.65625 l 0.732143,3.0758928 -0.723214,2 -4.6875,1.0848214 2.28125,-6.3571428 1.928571,-0.4598214 z"
           style="color:#000000;fill:#000000;fill-opacity:1;fill-rule:nonzero;stroke:none;stroke-width:1;marker:none;visibility:visible;display:block" />
        <rect
           style="color:#000000;fill:none;stroke:#ffffff;stroke-width:1;stroke-linecap:butt;stroke-linejoin:miter;stroke-miterlimit:4;stroke-opacity:0.57512949;stroke-dasharray:none;stroke-dashoffset:0;marker:none;visibility:visible;display:block"
           id="rect4372"
           width="37.842842"
           height="4.6068902"
           x="2.6716552"
           y="11.327118"
           rx="0.26506385"
           ry="0.26506385"
           transform="matrix(0.974407,-0.22479,0.22479,0.974407,0,0)" />
      </g>
      <rect
         transform="matrix(0.9747427,-0.22333085,0.22625776,0.97406746,0,0)"
         ry="1.1354414"
         rx="1.1424617"
         y="444.08087"
         x="217.431"
         height="6.8965421"
         width="40.063534"
         id="rect2200"
         style="color:#000000;fill:url(#linearGradient11316);fill-opacity:1;fill-rule:nonzero;stroke:#2e2e2e;stroke-width:0.99657786;stroke-linecap:butt;stroke-linejoin:miter;stroke-miterlimit:4;stroke-opacity:1;stroke-dasharray:none;stroke-dashoffset:0;marker:none;visibility:visible;display:block" />
      <path
         inkscape:connector-curvature="0"
         sodipodi:nodetypes="ccccc"
         id="path2202"
         d="m 319.72849,382.86976 -2.42857,6.52652 4.71428,-1.27693 2.42857,-6.24276 -4.71428,0.99317 z"
         style="fill:#000000;fill-opacity:1;fill-rule:evenodd;stroke:none" />
      <path
         inkscape:connector-curvature="0"
         style="fill:#000000;fill-opacity:1;fill-rule:evenodd;stroke:none"
         d="m 329.0142,380.52871 -2.64286,6.95217 4.71429,-1.13504 2.64286,-6.81029 -4.71429,0.99316 z"
         id="path2204"
         sodipodi:nodetypes="ccccc" />
      <path
         inkscape:connector-curvature="0"
         sodipodi:nodetypes="ccccc"
         id="path2206"
         d="m 338.65706,378.40051 -2.57143,7.09404 4.71429,-1.13504 2.57142,-6.95217 -4.71428,0.99317 z"
         style="fill:#000000;fill-opacity:1;fill-rule:evenodd;stroke:none" />
      <path
         inkscape:connector-curvature="0"
         sodipodi:nodetypes="ccccccc"
         id="rect2210"
         d="m 350.88027,375.75354 c 0.22908,0.15498 0.40125,0.36113 0.46875,0.65176 l 0.66072,2.62923 -1.08036,2.76668 -5.11607,1.21929 2.35268,-6.6684 2.71428,-0.59856 z"
         style="color:#000000;fill:#000000;fill-opacity:1;fill-rule:nonzero;stroke:none;stroke-width:1;marker:none;visibility:visible;display:block" />
      <rect
         style="color:#000000;fill:none;stroke:#ffffff;stroke-width:0.99657762;stroke-linecap:butt;stroke-linejoin:miter;stroke-miterlimit:4;stroke-opacity:0.57512949;stroke-dasharray:none;stroke-dashoffset:0;marker:none;visibility:visible;display:block"
         id="rect2510"
         width="38.186153"
         height="4.8828235"
         x="218.39713"
         y="445.04849"
         rx="0.26497209"
         ry="0.26334387"
         transform="matrix(0.9747427,-0.22333085,0.22625776,0.97406746,0,0)" />
      <path
         inkscape:connector-curvature="0"
         sodipodi:nodetypes="ccccccc"
         id="path3583"
         d="m 316.12134,385.60097 0,7.73251 c 0,0.46111 0.39286,0.88675 0.85715,0.92223 l 7.89285,0 c 0.86367,0 1.27386,-1.25323 0.60714,-1.91539 l -6.21428,-7.23594 c -0.96428,-1.38334 -3.14286,-0.7094 -3.14286,0.49659 z"
         style="fill:url(#linearGradient11308);fill-opacity:1;fill-rule:evenodd;stroke:#1b1b1b;stroke-width:0.9965775;stroke-linecap:butt;stroke-linejoin:miter;stroke-miterlimit:4;stroke-opacity:1;stroke-dasharray:none" />
      <path
         transform="matrix(1,0,0,0.99316669,309.5142,369.85217)"
         d="m 9.0357146,17.196428 a 0.48214287,0.48214287 0 1 1 -0.9642858,0 0.48214287,0.48214287 0 1 1 0.9642858,0 z"
         sodipodi:ry="0.48214287"
         sodipodi:rx="0.48214287"
         sodipodi:cy="17.196428"
         sodipodi:cx="8.5535717"
         id="path3587"
         style="color:#000000;fill:#ffffff;fill-opacity:1;fill-rule:nonzero;stroke:none;stroke-width:1;marker:none;visibility:visible;display:block"
         sodipodi:type="arc" />
      <path
         sodipodi:type="arc"
         style="color:#000000;fill:#ffffff;fill-opacity:1;fill-rule:nonzero;stroke:none;stroke-width:1;marker:none;visibility:visible;display:block"
         id="path3589"
         sodipodi:cx="8.5535717"
         sodipodi:cy="17.196428"
         sodipodi:rx="0.48214287"
         sodipodi:ry="0.48214287"
         d="m 9.0357146,17.196428 a 0.48214287,0.48214287 0 1 1 -0.9642858,0 0.48214287,0.48214287 0 1 1 0.9642858,0 z"
         transform="matrix(1,0,0,0.99316669,309.5142,375.10177)" />
      <path
         transform="matrix(1,0,0,0.99316669,314.54992,375.10177)"
         d="m 9.0357146,17.196428 a 0.48214287,0.48214287 0 1 1 -0.9642858,0 0.48214287,0.48214287 0 1 1 0.9642858,0 z"
         sodipodi:ry="0.48214287"
         sodipodi:rx="0.48214287"
         sodipodi:cy="17.196428"
         sodipodi:cx="8.5535717"
         id="path3591"
         style="color:#000000;fill:#ffffff;fill-opacity:1;fill-rule:nonzero;stroke:none;stroke-width:1;marker:none;visibility:visible;display:block"
         sodipodi:type="arc" />
      <g
         transform="matrix(1,0,0,0.99316669,309.58563,378.75521)"
         style="opacity:0.26130652"
         id="g3629">
        <path
           inkscape:connector-curvature="0"
           style="fill:none;stroke:#ffffff;stroke-width:1;stroke-linecap:butt;stroke-linejoin:miter;stroke-miterlimit:4;stroke-opacity:1;stroke-dasharray:none"
           d="m 10,28.428571 28,0"
           id="path3601" />
        <path
           inkscape:connector-curvature="0"
           style="fill:none;stroke:#ffffff;stroke-width:1;stroke-linecap:butt;stroke-linejoin:miter;stroke-miterlimit:4;stroke-opacity:1;stroke-dasharray:none"
           d="m 10,32.571424 28,0"
           id="path3603" />
        <path
           inkscape:connector-curvature="0"
           style="fill:none;stroke:#ffffff;stroke-width:1;stroke-linecap:butt;stroke-linejoin:miter;stroke-miterlimit:4;stroke-opacity:1;stroke-dasharray:none"
           d="m 32.5,28 0,-4"
           id="path3607" />
        <path
           inkscape:connector-curvature="0"
           style="fill:none;stroke:#ffffff;stroke-width:1;stroke-linecap:butt;stroke-linejoin:miter;stroke-miterlimit:4;stroke-opacity:1;stroke-dasharray:none"
           d="m 10,32.571424 28,0"
           id="path3605" />
        <path
           inkscape:connector-curvature="0"
           style="fill:none;stroke:#ffffff;stroke-width:1;stroke-linecap:butt;stroke-linejoin:miter;stroke-miterlimit:4;stroke-opacity:1;stroke-dasharray:none"
           d="m 22.5,28 0,-4"
           id="path3611" />
        <path
           inkscape:connector-curvature="0"
           id="path3615"
           d="m 9.7429344,36.571424 13.2998316,0"
           style="fill:none;stroke:#ffffff;stroke-width:0.9999997;stroke-linecap:butt;stroke-linejoin:miter;stroke-miterlimit:4;stroke-opacity:1;stroke-dasharray:none" />
      </g>
      <g
         transform="matrix(0.688056,0,0,0.6833543,321.56752,389.41517)"
         style="fill:#ffffff;fill-opacity:1"
         id="g3680">
        <path
           inkscape:connector-curvature="0"
           style="fill:#ffffff;fill-opacity:1;fill-rule:nonzero;stroke:none"
           id="path3674"
           d="m 13.817087,27.83871 c 0.113601,0.965157 0.244861,1.927714 0.394926,2.887925 l -2.107716,1.115321 C 11.971325,30.898587 11.859805,29.948673 11.653276,29.01819 l 2.163811,-1.17948 z" />
        <path
           inkscape:connector-curvature="0"
           style="fill:#ffffff;fill-opacity:1;fill-rule:nonzero;stroke:none"
           id="path3676"
           d="m 17.665061,28.673198 c -0.02417,2.079247 0.678,1.192783 -1.910963,2.589105 0.815412,-1.303562 2.191632,-2.618366 3.548625,-1.445006 2.591189,0.421672 -1.433848,2.481989 0.355171,0.314327 2.600013,-2.269865 2.222306,-0.997521 4.404319,-0.868565 1.780222,0.430207 1.796194,0.05633 -0.570253,1.416663 0.03203,-0.02793 0.06406,-0.05585 0.09609,-0.08377 l 2.238621,-0.946961 c -0.02529,0.03869 -0.05058,0.07738 -0.07587,0.116068 -2.811349,1.677475 -1.668398,1.183753 -3.647289,0.92631 -1.86635,-0.327685 -2.87539,-0.553295 -0.220839,-1.484714 -1.139443,1.293919 -2.981215,3.299891 -4.618598,1.882935 -1.588509,-1.170545 2.132535,-2.413333 0.764613,-0.73098 -2.682553,1.478611 -2.400461,1.55186 -2.560742,-0.565921 l 2.197119,-1.119488 z" />
        <path
           inkscape:connector-curvature="0"
           style="fill:#ffffff;fill-opacity:1;fill-rule:nonzero;stroke:none"
           id="path3678"
           d="m 29.174994,26.230789 c 0.14593,1.507956 0.225786,3.019542 0.405142,4.524683 1.423472,1.850746 -1.826977,4.633968 -1.347225,1.808834 0.342081,-3.243811 0.650319,-3.84417 3.528747,-4.879984 0.547689,0.983343 0.847731,2.137946 1.704024,2.727959 -4.840075,2.551671 1.693745,-1.481215 2.420946,-1.867341 0.464921,-0.109143 0.939853,-0.165325 1.412287,-0.230751 l -1.920756,1.437314 c -0.464844,0.06807 -0.935057,0.1189 -1.384984,0.261165 2.998581,-1.911568 -0.568404,0.841891 -2.506019,1.817551 -0.923746,-0.724224 -1.143464,-1.894425 -1.783232,-2.880314 3.14599,-2.218804 0.63263,-0.141231 0.637903,2.577332 -0.28354,2.350093 -3.320174,3.549885 -2.814981,0.306459 -0.172764,-1.481806 -0.250004,-2.982368 -0.530099,-4.447333 l 2.178247,-1.155574 z" />
      </g>
      <g
         transform="matrix(1.013963,0,0,1.0070343,311.46419,380.21425)"
         id="g3755">
        <path
           inkscape:connector-curvature="0"
           style="fill:#ffffff;fill-opacity:1;fill-rule:nonzero;stroke:none"
           id="path3693"
           d="m 11.316278,22.373912 c 1.820856,-1.333208 1.127169,-0.281091 1.128436,1.146858 -0.01466,1.286348 0.175884,2.556881 0.462421,3.806594 l -1.262911,0.682145 c -0.287161,-1.259893 -0.47939,-2.540337 -0.475327,-3.836434 -0.01981,-1.552781 -0.288652,-1.952637 1.347165,-2.670858 l -1.199784,0.871695 z" />
        <path
           inkscape:connector-curvature="0"
           style="fill:#ffffff;fill-opacity:1;fill-rule:nonzero;stroke:none"
           id="path3695"
           d="m 15.610946,22.413179 c -0.02437,0.790304 -0.02398,1.581273 -0.02699,2.3719 -0.0011,0.331934 -0.001,0.663869 -0.0013,0.995804 l -1.264717,0.644405 c -3.07e-4,-0.33148 -2.58e-4,-0.66296 -0.0013,-0.994439 -0.003,-0.781455 -0.0024,-1.563275 -0.02699,-2.344395 l 1.321376,-0.673275 z" />
        <path
           inkscape:connector-curvature="0"
           style="fill:#ffffff;fill-opacity:1;fill-rule:nonzero;stroke:none"
           id="path3697"
           d="m 17.833281,21.200996 c 0.09877,0.796352 0.117107,1.655155 0.145148,2.472831 0.008,0.24117 0.0132,0.482416 0.01979,0.723625 l -1.257551,0.645191 c -0.0078,-0.240127 -0.0132,-0.480333 -0.02347,-0.72038 -0.03579,-0.815108 -0.04172,-1.648209 -0.205301,-2.447992 l 1.321376,-0.673275 z" />
        <path
           inkscape:connector-curvature="0"
           style="fill:#ffffff;fill-opacity:1;fill-rule:nonzero;stroke:none"
           id="path3699-0"
           d="m 20.257647,20.594904 c -0.196164,0.682214 -0.268848,1.395879 -0.337656,2.103621 -0.0674,0.761239 -0.09762,1.524887 -0.128658,2.288229 l -1.257113,0.634694 c 0.02996,-0.763385 0.05957,-1.526914 0.115545,-2.288959 0.05537,-0.688124 0.083,-1.405566 0.286506,-2.06431 l 1.321376,-0.673275 z" />
        <path
           inkscape:connector-curvature="0"
           style="fill:#ffffff;fill-opacity:1;fill-rule:nonzero;stroke:none"
           id="path3701"
           d="m 9.8969255,22.310339 c 0.9067235,0.190928 1.8267775,0.348564 2.7421905,0.503737 2.149945,0.332152 4.306576,0.626935 6.468095,0.873614 0.903938,0.09251 1.807226,0.19028 2.709599,0.296728 l -1.16802,0.826398 C 19.754597,24.700327 18.859587,24.597014 17.963955,24.498588 15.801624,24.238152 13.642863,23.943889 11.488982,23.62143 10.560864,23.472229 9.6271038,23.290017 8.6971411,23.182034 l 1.1997844,-0.871695 z" />
      </g>
      <path
         inkscape:connector-curvature="0"
         id="rect7002-0"
         d="m 336.63402,351.20074 c -26.14368,0 -47.34375,21.2575 -47.34375,47.5 0,26.24251 21.20007,47.53125 47.34375,47.53125 26.1437,0 47.34375,-21.28874 47.34375,-47.53125 0,-26.2425 -21.20005,-47.5 -47.34375,-47.5 z m 0,8.625 c 9.88075,0 18.90573,3.69076 25.78125,9.75 l -56.21875,53.78125 c -5.38472,-6.69101 -8.59375,-15.21064 -8.59375,-24.46875 0,-21.55799 17.47326,-39.0625 39.03125,-39.0625 z m 30.3125,14.46875 c 5.44875,6.7176 8.71875,15.27472 8.71875,24.59375 0,21.55799 -17.47326,39.03125 -39.03125,39.03125 -9.94458,0 -19.01429,-3.72161 -25.90625,-9.84375 l 56.21875,-53.78125 z"
         style="fill:#800000;fill-opacity:1;stroke:#000000;stroke-width:0.31739458;stroke-opacity:1" />
    </g>
  </g>
</svg>
