<?xml version="1.0" encoding="UTF-8" standalone="no"?>
<!-- Created with Inkscape (http://www.inkscape.org/) -->

<svg
   xmlns:dc="http://purl.org/dc/elements/1.1/"
   xmlns:cc="http://creativecommons.org/ns#"
   xmlns:rdf="http://www.w3.org/1999/02/22-rdf-syntax-ns#"
   xmlns:svg="http://www.w3.org/2000/svg"
   xmlns="http://www.w3.org/2000/svg"
   xmlns:sodipodi="http://sodipodi.sourceforge.net/DTD/sodipodi-0.dtd"
   xmlns:inkscape="http://www.inkscape.org/namespaces/inkscape"
   width="48px"
   height="48px"
   id="svg3382"
   version="1.1"
   inkscape:version="0.48.0 r9654"
   sodipodi:docname="Новый документ 6">
  <defs
     id="defs3384" />
  <sodipodi:namedview
     id="base"
     pagecolor="#ffffff"
     bordercolor="#666666"
     borderopacity="1.0"
     inkscape:pageopacity="0.0"
     inkscape:pageshadow="2"
     inkscape:zoom="7"
     inkscape:cx="24"
     inkscape:cy="24"
     inkscape:current-layer="layer1"
     showgrid="true"
     inkscape:grid-bbox="true"
     inkscape:document-units="px"
     inkscape:window-width="1280"
     inkscape:window-height="962"
     inkscape:window-x="-8"
     inkscape:window-y="-8"
     inkscape:window-maximized="1" />
  <metadata
     id="metadata3387">
    <rdf:RDF>
      <cc:Work
         rdf:about="">
        <dc:format>image/svg+xml</dc:format>
        <dc:type
           rdf:resource="http://purl.org/dc/dcmitype/StillImage" />
        <dc:title></dc:title>
      </cc:Work>
    </rdf:RDF>
  </metadata>
  <g
     id="layer1"
     inkscape:label="Layer 1"
     inkscape:groupmode="layer">
    <g
       id="g3097"
       transform="matrix(1.25,0,0,1.25,-296.44562,-515.29402)">
      <path
         style="fill:#ffffff;stroke:none"
         d="m 256.356,414.978 c 9.127,0 16.572,7.444 16.572,16.572 0,9.127 -7.445,16.571 -16.572,16.571 -9.127,0 -16.571,-7.444 -16.571,-16.571 0,-9.128 7.444,-16.572 16.571,-16.572 z"
         id="path3099"
         inkscape:connector-curvature="0" />
      <g
         id="g3101">
        <path
           style="fill:#1d5f3b;stroke:none"
           d="m 256.356,415.841 c 8.652,0 15.708,7.057 15.708,15.709 0,8.651 -7.056,15.708 -15.708,15.708 -8.652,0 -15.708,-7.057 -15.708,-15.708 0,-8.652 7.056,-15.709 15.708,-15.709 z"
           id="path3103"
           inkscape:connector-curvature="0" />
        <path
           style="fill:#ffffff;stroke:none"
           d="m 256.356,416.627 c 8.219,0 14.923,6.703 14.923,14.923 0,8.219 -6.704,14.923 -14.923,14.923 -8.219,0 -14.923,-6.704 -14.923,-14.923 0,-8.22 6.704,-14.923 14.923,-14.923 z"
           id="path3105"
           inkscape:connector-curvature="0" />
        <path
           style="fill:#1d5f3b;stroke:none"
           d="m 256.356,416.941 c 8.046,0 14.609,6.562 14.609,14.609 0,8.046 -6.563,14.608 -14.609,14.608 -8.046,0 -14.609,-6.562 -14.609,-14.608 0,-8.047 6.563,-14.609 14.609,-14.609 z"
           id="path3107"
           inkscape:connector-curvature="0" />
        <path
           style="fill:#ffffff;stroke:none"
           d="m 256.356,417.098 c 7.96,0 14.452,6.492 14.452,14.452 0,7.959 -6.492,14.451 -14.452,14.451 -7.96,0 -14.452,-6.492 -14.452,-14.451 0,-7.96 6.492,-14.452 14.452,-14.452 z"
           id="path3109"
           inkscape:connector-curvature="0" />
        <path
           style="fill:#1d5f3b;stroke:none"
           d="m 270.585,434.081 c -1.203,6.76 -7.132,11.92 -14.229,11.92 -7.096,0 -13.026,-5.16 -14.229,-11.92 l 28.458,0 z"
           id="path3111"
           inkscape:connector-curvature="0" />
        <path
           style="fill:#1d5f3b;stroke:none"
           d="m 261.564,430.046 c -2.48,-0.036 -2.579,2.062 -2.796,3.018 -0.09,0.394 -0.115,0.733 -0.135,0.917 l 0.472,0 c 0.087,-1.32 0.262,-1.818 0.897,-2.647 0.305,-0.396 0.154,-0.413 -0.058,-0.199 -0.202,0.204 -0.405,0.514 -0.496,0.739 -0.136,0.338 -0.271,0.2 -0.177,-0.092 0.367,-1.15 1.686,-1.593 2.837,-1.591 -0.095,-0.059 -0.356,-0.142 -0.544,-0.145 z m -7.123,-5.502 c 0.191,0.481 0.372,0.422 0.233,-0.031 0.165,-0.029 0.264,-0.064 0.264,-0.103 0,-0.045 -0.131,-0.086 -0.343,-0.116 -0.706,-1.806 -0.938,-2.167 -0.25,-0.028 -0.196,-0.016 -0.203,-0.026 -0.677,-0.026 -0.474,0 -1.269,0.076 -1.269,0.17 0,0.093 0.57,0.17 1.269,0.17 0.29,0 0.558,-0.013 0.773,-0.036 z m -0.363,-1.919 c 0.356,0.671 0.712,1.343 1.068,2.014 0.539,0.91 -3.429,0.961 -2.97,0.022 l 1.091,-2.057 c 0.276,-0.083 0.667,-0.152 0.788,-0.004 0.009,0.012 0.015,0.021 0.023,0.025 z m -0.691,-2.449 c -0.02,-0.141 -0.05,-0.242 -0.095,-0.278 -0.031,-0.024 -0.048,-0.052 -0.048,-0.082 0,-0.098 0.213,-0.178 0.45,-0.178 0.236,0 0.454,0.08 0.454,0.178 0,0.033 -0.022,0.063 -0.058,0.09 -0.057,0.04 -0.094,0.162 -0.116,0.329 -0.177,-0.046 -0.407,-0.071 -0.587,-0.059 z m 0.574,0.051 c 0.097,-0.068 0.243,-0.194 0.311,-0.263 0.068,-0.068 0.146,-0.165 0.272,-0.077 0.127,0.087 0.069,0.448 -0.038,0.545 -0.146,-0.088 -0.438,-0.185 -0.545,-0.205 z m -1.126,0.416 c -0.032,0.057 -0.068,0.189 0.069,0.254 0.092,0.044 0.019,0.133 -0.009,0.198 -0.029,0.065 -0.036,0.12 0.029,0.174 0.068,0.057 0.189,0.101 0.137,0.171 -0.054,0.073 -0.105,0.149 -0.04,0.228 0.065,0.08 0.083,0.106 0.076,0.186 -0.007,0.079 -0.06,0.14 0.078,0.217 0.16,0.088 0.14,0.048 0.041,-0.042 -0.099,-0.09 0.011,-0.156 0.014,-0.214 0.007,-0.094 -0.101,-0.128 -0.076,-0.222 0.013,-0.049 0.096,-0.143 0.06,-0.232 -0.04,-0.1 -0.208,-0.14 -0.173,-0.219 0.038,-0.086 0.103,-0.175 0.055,-0.227 -0.06,-0.065 -0.123,-0.097 -0.125,-0.168 -0.002,-0.077 -0.028,-0.112 -0.063,-0.14 -0.027,-0.022 -0.073,0.036 -0.073,0.036 z m -0.07,2.449 c -0.163,-0.01 -0.607,-0.234 -0.645,-0.34 0.096,-0.135 0.535,-1.446 0.629,-2.002 0.042,-0.248 0.182,-0.316 0.352,-0.395 0.093,-0.044 0.203,-0.11 0.317,-0.119 0.346,-0.027 0.714,0.084 0.999,0.227 0.339,0.176 0.149,0.548 -0.024,0.471 -0.186,-0.076 -0.757,-0.212 -0.89,-0.146 0.198,0.036 0.712,0.121 0.958,0.338 0.16,0.185 0.084,0.434 -0.101,0.406 -0.1,-0.114 -0.765,-0.379 -0.915,-0.291 0.15,0.022 0.684,0.17 0.886,0.355 0.212,0.238 0.019,0.349 -0.066,0.391 -0.171,-0.107 -0.742,-0.338 -0.907,-0.24 0.233,0.033 0.705,0.189 0.835,0.302 0.152,0.134 0.01,0.523 -0.066,0.388 -0.147,-0.176 -0.681,-0.042 -0.938,0.054 -0.088,0.034 -0.169,0.039 -0.237,0.034 -0.068,-0.005 -0.331,-0.026 -0.442,-0.177 -0.051,-0.069 -0.132,-0.042 -0.045,0.062 0.135,0.162 0.35,0.24 0.364,0.247 0.224,0.095 -0.018,0.377 -0.064,0.435 z m 8.775,5.271 c -0.249,0.091 -1.204,0.392 -1.597,0.379 -0.393,-0.013 -0.827,-0.118 -1.126,-0.183 -0.297,-0.065 -0.771,-0.241 -1.268,0.052 -0.255,0.151 -0.611,1.338 -0.341,1.124 0.68,-0.54 1.016,-0.54 1.849,-0.54 0.484,0 0.899,-0.061 1.567,-0.1 0.667,-0.039 1.047,-0.222 1.125,-0.418 0.079,-0.197 0.04,-0.406 -0.209,-0.314 z m -3.512,-2.089 c 0.048,0.101 0.031,0.244 -0.111,0.394 -0.04,0.043 -0.051,0.076 0.032,0.026 0.093,-0.056 0.143,-0.13 0.16,-0.195 0.036,-0.141 0.106,-0.089 0.13,0.004 0.106,0.423 0.101,1.023 -0.268,1.217 -0.231,0.121 -0.127,0.168 0.087,0.1 0.165,-0.053 0.27,-0.195 0.31,-0.369 0.055,-0.237 0.014,-0.39 -0.064,-0.986 -0.077,-0.591 0.033,-0.866 0.206,-0.985 0.109,-0.074 0.149,-0.103 0.189,-0.12 0.04,-0.016 0.003,-0.133 0.065,-0.184 0.124,-0.104 0.07,-0.121 0.23,-0.105 0.145,0.014 0.103,-0.156 -0.083,-0.186 -0.051,-0.008 -0.048,-0.144 -0.113,-0.155 -0.164,-0.03 -0.569,-0.13 -0.551,-0.354 0.006,-0.081 0.019,-0.162 0.07,-0.277 -0.064,-0.097 -0.185,-0.4 -0.193,-0.453 -0.041,-0.26 0.294,-0.683 0.532,-0.665 0.206,0.017 0.441,-0.265 0.662,-0.158 0.389,0.188 0.731,-0.05 1.212,0.302 0.422,0.308 0.462,-0.019 1.149,0.479 0.086,0.062 0.477,0.557 0.557,0.698 0.623,1.096 0.619,1.193 0.596,1.842 -0.019,0.557 -0.033,0.63 -0.609,0.512 -0.112,-0.023 -0.156,-0.092 -0.181,-0.256 -0.343,-2.328 -2.961,-2.918 -3.355,-2.701 -0.002,10e-4 -0.003,0.002 -0.004,0.002 1.182,-0.008 3.116,1.426 3.116,2.659 0,0.128 0.044,0.292 -0.016,0.362 -0.007,-0.1 -0.028,-0.196 -0.043,-0.266 -0.064,-0.177 -0.129,-0.353 -0.193,-0.53 -0.112,-0.155 -0.225,-0.31 -0.337,-0.465 -0.053,-0.031 -0.107,-0.063 -0.16,-0.094 -0.634,-0.807 -1.53,-1.251 -2.108,-1.378 -0.122,-0.027 -0.233,-0.022 -0.324,-0.01 0.47,0.04 1.398,0.406 2.124,1.15 -0.247,-0.148 -0.494,-0.028 -0.828,0.266 -0.23,0.204 -0.353,0.182 -0.554,0.311 0,0.058 0.06,0.157 0.06,0.216 0.17,0.051 0.371,0.235 0.377,0.235 0.381,0.007 0.524,-0.718 0.902,-0.269 0.078,0.139 0.029,0.167 0.029,0.327 0.222,0.068 0.209,0.066 0.273,0.289 0,0 -0.144,0.225 0.032,0.225 0.177,0 0.209,0.161 0.321,0.209 0.113,0.048 0.209,0.08 0.209,0.08 0.021,0.025 0.043,0.05 0.064,0.075 -0.12,0.339 -0.319,0.645 -0.076,1.002 0.208,0.305 -1.788,0.492 -2.307,0.205 -0.024,-0.013 0.43,-0.336 0.561,-0.643 0.223,-0.524 0.624,-0.997 0.78,-1.067 0.315,-0.14 0.145,-0.268 -0.018,-0.15 -0.046,0.033 -0.121,0.048 -0.246,0.149 -0.03,0.025 -0.259,0.067 -0.392,-0.014 -0.06,-0.036 -0.09,-0.014 -0.054,0.036 0.011,0.017 0.035,0.033 0.062,0.051 0.098,0.065 0.158,0.154 0.046,0.262 -0.151,0.146 -0.262,0.404 -0.377,0.608 -0.301,0.532 -0.715,0.776 -1.569,0.608 -0.304,-0.06 -0.121,-0.253 -0.357,-0.232 -0.317,0.027 -0.476,-0.321 -0.443,-0.586 0.012,-0.088 0.046,-0.175 0.107,-0.254 0.183,-0.236 -0.104,-0.308 -0.075,-0.5 0.027,-0.179 0.364,-0.144 0.513,-0.158 0.05,-0.004 0.048,-0.045 0.048,-0.06 0,-0.06 -0.357,-0.023 -0.37,-0.041 -0.04,-0.053 -0.105,-0.132 0.021,-0.251 0,0 0.155,-0.253 -0.018,-0.338 -0.33,-0.163 -0.377,-0.413 -0.038,-0.641 0.201,-0.136 0.161,-0.268 0.548,-0.536 0.065,-0.046 0.159,-0.03 0.211,-0.064 0.146,0.222 0.184,0.219 0.349,0.303 0.318,0.16 0.045,0.272 -0.09,0.257 -0.046,-0.005 -0.162,-0.089 -0.18,-0.077 -0.069,0.046 0.074,0.159 0.222,0.18 0.046,0.006 -0.037,0.163 -0.129,0.163 -0.265,0 -0.316,0.211 -0.219,0.717 0.012,0.066 0.013,0.346 -0.046,0.213 -0.062,-0.096 -0.111,-0.061 -0.063,0.039 z m -0.338,-0.878 c 0.098,-0.014 0.197,0.094 0.212,0.188 0.008,0.051 -0.033,0.165 -0.08,0.118 -0.071,-0.071 -0.163,-0.086 -0.147,-0.117 0.008,-0.014 0.017,-0.02 0.035,-0.021 0.098,-0.006 -0.022,-0.121 -0.066,-0.107 -0.05,-0.048 0.026,-0.059 0.046,-0.061 z m -15.657,8.585 c 0.009,0.062 0.019,0.123 0.028,0.185 l 28.577,0 c 0.009,-0.062 0.019,-0.123 0.027,-0.185 l -6.992,0 c -0.003,-0.322 -0.033,-1.363 -0.306,-2.323 -0.281,-0.989 -0.69,-1.385 -1.178,-1.458 0.034,-0.004 0.048,-0.025 0.034,-0.074 -0.054,-0.181 -0.284,-0.637 -0.572,-0.703 -1.461,-0.337 -1.799,0.352 -2.221,0.633 -0.422,0.281 -0.956,1.013 -1.314,1.002 -0.572,-0.018 -2.302,-0.121 -2.126,-0.549 0.258,-0.628 0.874,-1.93 1.528,-2.278 -0.164,-0.068 -0.678,-0.309 -1.006,-0.444 -1.011,-0.418 -1.256,-0.65 -1.666,-0.748 -0.073,-0.018 -0.095,-0.03 -0.152,0.026 -0.071,0.069 -0.174,0.203 -0.242,0.294 -0.078,0.103 -0.14,0.056 -0.081,-0.044 0.058,-0.099 0.114,-0.27 0.134,-0.368 0.036,-0.174 -0.064,-0.359 -0.15,-0.091 -0.068,0.21 -0.207,0.453 -0.311,0.567 -0.083,0.093 -0.162,0.06 -0.079,-0.049 0.098,-0.128 0.224,-0.366 0.252,-0.48 0.048,-0.196 -0.034,-0.16 0.032,-0.302 0.132,-0.28 0.146,-0.672 0.107,-1.098 l -0.002,0 -0.16,0.022 -0.164,0.016 -0.168,0.01 -0.169,0.005 -0.169,-0.001 -0.168,-0.007 -0.166,-0.013 -0.161,-0.018 -0.156,-0.024 -0.149,-0.031 -0.142,-0.037 -0.132,-0.044 -0.123,-0.053 -0.113,-0.063 -0.1,-0.076 -0.086,-0.094 -0.063,-0.114 -0.03,-0.132 0.01,-0.137 0.045,-0.124 0.714,-1.348 c -0.265,-0.057 -0.498,-0.179 -0.699,-0.364 -1.427,0.848 -0.658,1.003 -0.783,2.23 -0.034,0.338 -0.14,1.018 -0.178,1.335 -0.084,0.698 0.437,0.756 0.418,1.052 -0.025,0.409 0.162,0.746 0.528,0.843 0.675,0.18 0.757,0.437 1.386,-0.025 0.175,-0.128 0.218,-0.372 0.273,-0.492 0.083,-0.182 0.199,-0.139 0.116,0.006 -0.046,0.08 -0.069,0.173 -0.087,0.248 -0.021,0.086 -0.043,0.158 0.07,0.065 0.072,-0.059 0.185,-0.099 0.325,-0.251 0.133,-0.146 0.227,-0.077 0.018,0.136 -0.135,0.138 -1.267,0.856 -0.936,1.085 0.685,0.473 1.91,1.545 2.135,1.905 0.052,-0.261 0.207,-0.69 0.457,-1.102 0.356,-0.587 0.478,-0.503 0.147,0.114 -0.265,0.494 -0.459,1.01 -0.549,1.345 -0.178,0.667 -0.417,1.949 -0.464,2.62 l -12.848,0 z"
           id="path3113"
           inkscape:connector-curvature="0" />
        <path
           style="fill:#ffffff;stroke:none"
           d="m 261.356,437.18 c 0,-0.326 -0.306,-0.537 -0.22,-0.599 0.061,-0.043 0.123,-0.092 0.226,-0.158 0.102,-0.067 0.206,-0.134 0.313,-0.203 0.044,0 0.104,0.06 0.18,0.18 0.092,0.143 0.138,0.292 0.138,0.445 0,0.19 -0.076,0.35 -0.228,0.48 -0.151,0.13 -0.228,0.215 -0.228,0.255 0,0.018 0.045,0.087 0.132,0.206 0.088,0.118 0.138,0.196 0.151,0.232 0.013,0.037 0.041,0.164 0.085,0.379 0.004,0.03 0.013,0.066 0.028,0.11 0.014,0.043 0.047,0.089 0.099,0.137 0.05,0.047 0.076,0.08 0.076,0.099 -0.08,0.091 -0.143,0.159 -0.187,0.203 -0.135,0.135 -0.235,0.203 -0.301,0.203 -0.165,0 -0.293,-0.238 -0.385,-0.713 -0.051,-0.267 -0.112,-0.442 -0.18,-0.527 l -0.072,0 c -0.014,0.015 -0.022,0.033 -0.022,0.055 l 0,1.168 -0.763,0 c 0,-0.846 0,-1.603 0,-2.45 0,-0.11 -0.011,-0.249 0.092,-0.289 l 0.694,-0.289 -10e-4,1.52 c 0.117,-0.015 0.213,-0.076 0.286,-0.186 0.058,-0.088 0.087,-0.174 0.087,-0.258 z m -3.447,1.218 0,-1.418 0,0 0,1.418 0,0 z m -0.286,-0.643 c -0.12,-0.114 -0.244,-0.235 -0.347,-0.338 0,-0.265 10e-4,-0.526 10e-4,-0.791 0,-0.117 -0.051,-0.178 -0.109,-0.277 -0.068,-0.115 -0.129,-0.173 -0.183,-0.173 -0.026,0 -0.135,0.052 -0.325,0.154 -0.19,0.102 -0.285,0.164 -0.285,0.186 0,0.004 0.023,0.036 0.069,0.096 0.045,0.061 0.068,0.116 0.068,0.167 l 0,2.353 0.763,0 c 0,-0.465 0.002,-0.928 0.001,-1.393 0.131,0.12 0.267,0.249 0.347,0.327 0,0.22 0,0.431 0,0.649 0,0.085 0.049,0.19 0.143,0.318 0.085,0.117 0.141,0.176 0.17,0.176 0.033,0 0.13,-0.062 0.291,-0.187 0.162,-0.124 0.242,-0.208 0.242,-0.252 -0.029,-0.062 -0.057,-0.123 -0.082,-0.183 -0.026,-0.061 -0.039,-0.113 -0.039,-0.157 l 0,-1.744 c 0,-0.132 -0.04,-0.254 -0.12,-0.367 -0.067,-0.096 -0.147,-0.172 -0.18,-0.143 -0.125,0.113 -0.327,0.278 -0.432,0.374 -0.064,0.058 -0.029,0.048 0.002,0.198 0.02,0.094 0.016,0.198 0.017,0.306 0.003,0.238 -0.012,0.495 -0.012,0.701 z m 6.934,-1.995 c 0.021,0.012 0.047,0.021 0.077,0.027 0.031,0.007 0.067,0.01 0.109,0.01 0.132,0 0.269,-0.04 0.41,-0.12 0.162,-0.091 0.291,-0.217 0.387,-0.378 0.017,0.008 0.067,0.051 0.15,0.131 0.083,0.079 0.125,0.126 0.125,0.141 -0.004,0.014 -0.009,0.025 -0.015,0.035 -0.036,0.063 -0.099,0.132 -0.189,0.209 -0.089,0.076 -0.176,0.13 -0.259,0.163 -0.083,0.032 -0.181,0.049 -0.294,0.049 -0.145,0 -0.285,-0.035 -0.418,-0.104 -0.09,-0.045 -0.166,-0.1 -0.229,-0.163 -0.165,-0.156 -0.103,-0.422 0.134,-0.402 0.118,0.01 0.197,0.116 0.18,0.234 -0.014,0.097 -0.099,0.145 -0.168,0.168 z m 1.503,3.059 c 0,0.037 -0.087,0.101 -0.261,0.192 -0.174,0.092 -0.275,0.138 -0.305,0.138 -0.043,0 -0.095,-0.035 -0.154,-0.104 -0.058,-0.07 -0.117,-0.141 -0.175,-0.214 -0.033,0 -0.148,0.053 -0.346,0.159 -0.198,0.105 -0.309,0.159 -0.334,0.159 -0.048,0 -0.107,-0.047 -0.177,-0.14 -0.069,-0.093 -0.104,-0.19 -0.104,-0.288 l 0,-1.827 c 0,-0.029 -0.014,-0.079 -0.044,-0.148 -0.029,-0.07 -0.058,-0.143 -0.087,-0.219 0.075,-0.072 0.153,-0.158 0.227,-0.23 0.124,-0.122 0.159,-0.152 0.214,-0.204 0.025,-0.022 0.117,0.055 0.212,0.165 0.118,0.135 0.176,0.267 0.176,0.395 l 0,1.826 c 0,0.048 0.023,0.093 0.069,0.135 0.045,0.042 0.085,0.063 0.117,0.063 0.016,0 0.031,-0.004 0.045,-0.014 0.015,-0.009 0.025,-0.015 0.033,-0.019 l 0,-2.474 0.751,0 0,2.37 c 0,0.069 0.025,0.132 0.072,0.187 0.047,0.054 0.071,0.086 0.071,0.092 z m -16.325,0.085 c 0.005,-0.065 0.002,-0.096 -0.06,-0.073 -0.032,0 -0.148,0.053 -0.345,0.159 -0.198,0.105 -0.31,0.159 -0.335,0.159 -0.048,0 -0.107,-0.047 -0.176,-0.14 -0.07,-0.093 -0.104,-0.19 -0.104,-0.288 l 0,-1.827 c 0,-0.029 -0.015,-0.079 -0.044,-0.148 -0.029,-0.07 -0.059,-0.143 -0.088,-0.219 0.096,-0.101 0.196,-0.205 0.291,-0.297 0.093,-0.09 0.149,-0.137 0.17,-0.137 0.034,0 0.097,0.055 0.193,0.165 0.117,0.135 0.175,0.267 0.175,0.395 l 0,1.826 c 0,0.048 0.023,0.093 0.069,0.135 0.046,0.042 0.085,0.063 0.118,0.063 0.015,0 0.03,-0.004 0.044,-0.014 0.015,-0.009 0.025,-0.015 0.033,-0.019 l 0,-2.474 0.752,0 0,2.134 c 0,0.541 -0.063,1.223 -0.43,1.653 -0.146,0.172 -0.28,0.292 -0.4,0.362 -0.019,0.011 -0.04,0.023 -0.067,0.027 -0.113,0.021 -0.235,-0.134 -0.512,-0.298 -0.132,-0.078 -0.223,-0.127 -0.281,-0.134 -0.015,-0.002 -0.036,-10e-4 -0.062,0.003 -0.072,0.01 -0.118,0.013 -0.14,0.011 -0.065,-0.008 -0.093,-0.047 -0.085,-0.116 0.007,-0.051 0.036,-0.086 0.088,-0.105 0.052,-0.019 0.105,-0.026 0.16,-0.019 0.043,0.006 0.099,0.023 0.165,0.054 0.066,0.03 0.172,0.078 0.187,0.08 0.02,0.003 0.054,-0.005 0.101,-0.024 0.419,-0.201 0.548,-0.524 0.583,-0.894 z m 2.316,-3.568 c 0.132,0.079 0.223,0.128 0.281,0.135 0.015,0.002 0.036,10e-4 0.062,-0.004 0.072,-0.009 0.118,-0.013 0.139,-0.01 0.066,0.008 0.094,0.047 0.086,0.115 -0.007,0.051 -0.036,0.087 -0.088,0.105 -0.052,0.02 -0.106,0.026 -0.16,0.019 -0.044,-0.005 -0.099,-0.023 -0.165,-0.053 -0.067,-0.03 -0.172,-0.079 -0.187,-0.081 -0.02,-0.002 -0.054,0.006 -0.102,0.025 -0.403,0.194 -0.723,0.847 -0.479,0.72 0.026,-0.013 0.119,-0.031 0.27,-0.093 0.149,-0.062 0.232,-0.093 0.246,-0.093 0.08,0 0.196,0.122 0.346,0.367 0.183,0.3 0.274,0.616 0.274,0.95 0,0.219 -0.043,0.429 -0.131,0.63 -0.132,0.304 -0.357,0.55 -0.675,0.74 -0.085,0.059 -0.169,0.115 -0.253,0.17 -0.172,0.114 -0.274,0.171 -0.307,0.171 -0.052,0 -0.159,-0.073 -0.322,-0.217 -0.162,-0.144 -0.244,-0.247 -0.244,-0.31 l 0,-1.937 c 0,-0.491 0.096,-0.866 0.429,-1.258 0.147,-0.171 0.281,-0.292 0.401,-0.361 0.019,-0.011 0.04,-0.023 0.066,-0.028 0.114,-0.02 0.236,0.134 0.513,0.298 z m -0.08,2.551 c 0,-0.31 -0.083,-0.618 -0.247,-0.921 -0.132,-0.245 -0.237,-0.383 -0.313,-0.412 0,0.322 -0.003,0.69 -0.009,1.105 -0.006,0.415 -0.008,0.649 -0.008,0.7 0,0.044 0.038,0.105 0.115,0.181 0.077,0.077 0.13,0.115 0.16,0.115 0.091,0 0.164,-0.087 0.219,-0.263 0.055,-0.176 0.083,-0.343 0.083,-0.505 z m -2.316,-2.699 c -0.015,-0.011 -0.029,-0.023 -0.044,-0.036 -0.015,-0.012 -0.031,-0.019 -0.05,-0.019 l -2.909,0 0,4.011 1.103,0 0,-3.561 c 0,-0.076 0.019,-0.128 0.058,-0.153 0.215,-0.143 0.567,0.042 0.743,0.164 -0.073,0.046 -0.309,0.212 -0.274,0.31 0.03,0.085 0.15,0.31 0.235,0.474 0.225,-0.253 0.935,-0.919 1.138,-1.19 z m 4.623,1.804 c 0,0.114 -0.147,0.295 -0.439,0.544 -0.293,0.249 -0.44,0.391 -0.44,0.428 0,0.102 0.239,0.334 0.714,0.696 -0.019,0.033 -0.108,0.119 -0.269,0.258 -0.161,0.139 -0.254,0.208 -0.28,0.208 -0.025,0 -0.081,-0.031 -0.167,-0.093 -0.086,-0.062 -0.179,-0.142 -0.278,-0.241 -0.164,-0.165 -0.289,-0.36 -0.373,-0.587 -0.07,-0.186 -0.104,-0.358 -0.104,-0.516 0,-0.105 0.026,-0.232 0.076,-0.378 0.052,-0.147 0.123,-0.291 0.215,-0.434 0.048,-0.073 0.165,-0.208 0.351,-0.405 0.208,-0.22 0.34,-0.33 0.395,-0.33 0.011,0 0.055,0.052 0.132,0.154 0.062,0.088 0.126,0.176 0.192,0.263 0.015,0.015 0.06,0.079 0.137,0.192 0.092,0.136 0.138,0.216 0.138,0.241 z m -0.604,0.313 c 0,-0.022 -0.035,-0.087 -0.104,-0.197 -0.096,-0.15 -0.178,-0.271 -0.248,-0.362 -0.018,-0.027 -0.04,-0.038 -0.055,0 -0.036,0.095 -0.067,0.187 -0.093,0.276 -0.026,0.091 -0.038,0.157 -0.038,0.201 0,0.117 0.013,0.222 0.041,0.315 0.027,0.094 0.064,0.14 0.112,0.14 0.044,0 0.119,-0.055 0.226,-0.164 0.106,-0.11 0.159,-0.18 0.159,-0.209 z m 2.72,0.292 c 0,0.295 -0.054,0.544 -0.16,0.743 -0.106,0.198 -0.282,0.388 -0.527,0.567 -0.055,0.047 -0.107,0.094 -0.159,0.138 -0.069,0.05 -0.137,0.076 -0.203,0.076 -0.04,0 -0.077,-0.007 -0.11,-0.021 l -0.065,0 c -0.015,0.069 -0.023,0.064 -0.023,0.155 0,0.019 0.001,0.075 0.003,0.122 0.002,0.048 0.001,0.073 -0.003,0.077 -0.011,0.059 -0.091,0.113 -0.239,0.164 -0.23,0.08 -0.383,0.143 -0.463,0.187 -0.037,-0.044 -0.055,-0.084 -0.055,-0.169 l 0,-0.767 c 0,-0.037 -0.029,-0.08 -0.088,-0.126 -0.043,-0.034 -0.073,-0.055 -0.088,-0.066 0.023,-0.055 0.046,-0.096 0.072,-0.127 0.04,-0.039 0.075,-0.073 0.104,-0.097 l 0,-1.592 c 0,-0.033 -0.017,-0.08 -0.053,-0.143 -0.034,-0.062 -0.069,-0.126 -0.106,-0.191 0,-0.026 0.086,-0.099 0.258,-0.22 0.172,-0.121 0.267,-0.181 0.285,-0.181 0.023,0 0.072,0.043 0.148,0.129 0.078,0.086 0.141,0.18 0.193,0.282 0.208,-0.08 0.393,-0.181 0.554,-0.301 0.055,-0.04 0.095,-0.06 0.121,-0.06 0.088,0 0.206,0.157 0.357,0.472 0.164,0.344 0.247,0.66 0.247,0.949 z m -0.676,0.361 c 0,-0.304 -0.036,-0.548 -0.107,-0.733 -0.067,-0.173 -0.172,-0.318 -0.314,-0.435 -0.058,-0.047 -0.128,-0.006 -0.128,0.071 l 0,1.701 c 0.044,0.021 0.112,0.062 0.203,0.12 0.059,0.037 0.094,0.055 0.105,0.055 0.069,0 0.13,-0.119 0.181,-0.357 0.041,-0.179 0.06,-0.319 0.06,-0.422 z m 4.364,-1.458 c -0.122,0.153 -0.226,0.257 -0.313,0.309 -0.088,0.054 -0.205,0.08 -0.351,0.08 -0.073,0 -0.14,-0.011 -0.201,-0.032 -0.061,-0.023 -0.13,-0.061 -0.211,-0.116 -0.023,0.04 -0.04,0.089 -0.053,0.147 -0.013,0.06 -0.019,0.128 -0.019,0.209 0,0.253 0.077,0.514 0.231,0.785 0.175,0.31 0.417,0.558 0.724,0.74 -0.015,0.033 -0.097,0.129 -0.249,0.289 -0.153,0.159 -0.243,0.238 -0.272,0.238 -0.026,-0.007 -0.047,-0.017 -0.066,-0.028 -0.121,-0.069 -0.254,-0.19 -0.401,-0.362 -0.146,-0.172 -0.25,-0.337 -0.312,-0.496 -0.063,-0.159 -0.094,-0.347 -0.094,-0.562 0,-0.279 0.066,-0.546 0.198,-0.802 0.088,-0.172 0.192,-0.318 0.313,-0.439 0.073,-0.077 0.128,-0.134 0.164,-0.17 0.121,-0.113 0.201,-0.17 0.242,-0.17 0.051,0.095 0.11,0.179 0.175,0.25 0.066,0.071 0.14,0.108 0.22,0.108 0.055,0 0.114,-0.018 0.176,-0.055 0.074,-0.046 0.141,0.011 0.099,0.077 z m 4.006,2.319 c 0,0.037 -0.087,0.101 -0.261,0.192 -0.174,0.092 -0.276,0.138 -0.305,0.138 -0.044,0 -0.095,-0.035 -0.154,-0.104 -0.058,-0.07 -0.117,-0.141 -0.175,-0.214 -0.033,0 -0.148,0.053 -0.346,0.159 -0.198,0.105 -0.31,0.159 -0.335,0.159 -0.048,0 -0.106,-0.047 -0.176,-0.14 -0.069,-0.093 -0.104,-0.19 -0.104,-0.288 l 0,-1.827 c 0,-0.029 -0.015,-0.079 -0.044,-0.148 -0.029,-0.07 -0.058,-0.143 -0.087,-0.219 0.074,-0.072 0.152,-0.158 0.226,-0.23 0.125,-0.122 0.16,-0.152 0.215,-0.204 0.025,-0.022 0.117,0.055 0.212,0.165 0.117,0.135 0.176,0.267 0.176,0.395 l 0,1.826 c 0,0.048 0.023,0.093 0.068,0.135 0.046,0.042 0.085,0.063 0.118,0.063 0.016,0 0.03,-0.004 0.045,-0.014 0.015,-0.009 0.025,-0.015 0.033,-0.019 l 0,-2.474 0.751,0 0,2.37 c 0,0.069 0.024,0.132 0.072,0.187 0.047,0.054 0.071,0.086 0.071,0.092 z m -13.082,3.919 c 0.032,-0.022 0.079,-0.078 0.143,-0.165 0.094,-0.128 0.325,-0.488 0.325,-0.573 l 0,-1.429 c 0,-0.051 0.018,-0.116 0.055,-0.195 0.036,-0.078 0.08,-0.117 0.132,-0.117 0.029,0 0.056,0.018 0.081,0.055 0.026,0.036 0.039,0.065 0.039,0.087 l 0,2.326 0.763,0 0,-2.353 c 0,-0.052 0.023,-0.107 0.069,-0.168 0.045,-0.06 0.068,-0.092 0.068,-0.095 0,-0.023 -0.095,-0.084 -0.285,-0.187 -0.19,-0.102 -0.299,-0.154 -0.324,-0.154 -0.055,0 -0.116,0.058 -0.184,0.173 -0.067,0.115 -0.114,0.173 -0.14,0.173 -0.044,0 -0.172,-0.058 -0.384,-0.173 -0.213,-0.115 -0.323,-0.173 -0.329,-0.173 -0.044,0 -0.099,0.048 -0.166,0.143 -0.079,0.114 -0.12,0.236 -0.12,0.367 l 0,1.658 -0.197,-0.04 c -0.099,0.132 -0.261,0.346 -0.359,0.478 0.019,0.11 0.08,0.113 0.176,0.151 l 0.528,0.211 c 0.032,0.013 0.078,0.02 0.109,0 z m 11.323,-1.706 c 0,0.219 -0.044,0.43 -0.132,0.631 -0.131,0.303 -0.356,0.55 -0.675,0.74 -0.084,0.058 -0.168,0.115 -0.252,0.17 -0.172,0.113 -0.275,0.17 -0.307,0.17 -0.052,0 -0.16,-0.072 -0.322,-0.216 -0.163,-0.145 -0.244,-0.248 -0.244,-0.311 l 0,-2.186 c 0,-0.059 0.095,-0.126 0.285,-0.2 0.19,-0.075 0.333,-0.11 0.428,-0.102 l 0,0.543 c 0.037,0.022 0.064,0.033 0.083,0.033 0.029,0 0.119,-0.031 0.269,-0.094 0.15,-0.062 0.232,-0.093 0.247,-0.093 0.211,0 0.62,0.713 0.62,0.915 z m -0.604,0.45 c 0,-0.209 -0.366,-0.857 -0.559,-0.931 0,0.322 -0.003,0.288 -0.009,0.703 -0.006,0.415 -0.009,0.649 -0.009,0.699 0,0.044 0.039,0.105 0.116,0.182 0.077,0.076 0.129,0.115 0.159,0.115 0.092,0 0.165,-0.088 0.22,-0.263 0.055,-0.176 0.082,-0.344 0.082,-0.505 z m -1.448,-0.291 c 0,0.296 -0.053,0.544 -0.159,0.743 -0.107,0.199 -0.282,0.389 -0.527,0.568 -0.055,0.047 -0.108,0.093 -0.159,0.137 -0.07,0.051 -0.138,0.077 -0.203,0.077 -0.041,0 -0.078,-0.007 -0.11,-0.022 l -0.066,0 c -0.014,0.07 -0.022,0.15 -0.022,0.241 0,0.019 10e-4,0.051 0.002,0.099 0.002,0.048 10e-4,0.073 -0.002,0.077 -0.011,0.058 -0.091,0.113 -0.24,0.164 -0.229,0.081 -0.383,0.143 -0.463,0.187 -0.037,-0.044 -0.055,-0.079 -0.055,-0.104 l 0,-0.894 c 0,-0.037 -0.029,-0.079 -0.088,-0.126 -0.043,-0.033 -0.073,-0.055 -0.087,-0.067 0.022,-0.055 0.045,-0.096 0.071,-0.126 0.041,-0.04 0.075,-0.073 0.104,-0.098 l 0,-1.592 c 0,-0.032 -0.017,-0.08 -0.052,-0.142 -0.035,-0.062 -0.07,-0.127 -0.107,-0.192 0,-0.026 0.086,-0.099 0.258,-0.22 0.172,-0.12 0.267,-0.18 0.286,-0.18 0.022,0 0.071,0.043 0.148,0.129 0.077,0.085 0.141,0.179 0.192,0.281 0.208,-0.079 0.393,-0.18 0.554,-0.3 0.055,-0.041 0.095,-0.061 0.121,-0.061 0.088,0 0.207,0.158 0.357,0.472 0.164,0.344 0.247,0.66 0.247,0.949 z m -0.675,0.361 c 0,-0.303 -0.036,-0.547 -0.108,-0.732 -0.071,-0.185 -0.185,-0.338 -0.343,-0.458 l -0.055,0 c -0.014,0.022 -0.026,0.039 -0.032,0.052 -0.008,0.013 -0.012,0.027 -0.012,0.041 l 0,1.701 c 0.044,0.022 0.112,0.062 0.203,0.121 0.06,0.036 0.094,0.055 0.105,0.055 0.07,0 0.13,-0.119 0.182,-0.357 0.04,-0.18 0.06,-0.32 0.06,-0.423 z m -1.521,0.89 c 0,0.025 -0.075,0.089 -0.224,0.191 -0.151,0.102 -0.239,0.154 -0.265,0.154 -0.055,0 -0.115,-0.053 -0.181,-0.159 -0.021,-0.036 -0.054,-0.095 -0.098,-0.175 -0.081,0.025 -0.175,0.071 -0.28,0.137 -0.19,0.117 -0.295,0.176 -0.313,0.176 -0.03,0 -0.079,-0.044 -0.148,-0.132 -0.172,-0.216 -0.258,-0.485 -0.258,-0.807 0,-0.146 0.013,-0.266 0.041,-0.362 0.027,-0.095 0.108,-0.23 0.244,-0.405 0.114,-0.147 0.267,-0.26 0.461,-0.341 0.154,-0.066 0.231,-0.123 0.231,-0.17 0,-0.076 -0.057,-0.155 -0.171,-0.233 -0.113,-0.079 -0.188,-0.118 -0.224,-0.118 -0.016,0 -0.057,0.011 -0.127,0.033 -0.069,0.022 -0.126,0.033 -0.17,0.033 -0.055,0 -0.107,-0.013 -0.156,-0.039 -0.049,-0.025 -0.074,-0.064 -0.074,-0.115 0,-0.069 0.032,-0.104 0.099,-0.104 0.021,0 0.067,0.009 0.136,0.027 0.026,0.008 0.047,0.012 0.061,0.012 0.059,0 0.158,-0.033 0.296,-0.099 0.14,-0.066 0.281,-0.136 0.423,-0.209 0.059,0 0.169,0.07 0.33,0.208 0.183,0.157 0.274,0.296 0.274,0.417 l 0,1.866 c 0,0.018 0.015,0.058 0.044,0.12 0.007,0.019 0.024,0.05 0.049,0.094 z m -0.807,-0.237 -0.016,-1.316 c -0.106,0.037 -0.193,0.125 -0.261,0.266 -0.068,0.141 -0.101,0.255 -0.101,0.343 0,0.154 0.035,0.314 0.107,0.48 0.071,0.166 0.136,0.25 0.195,0.25 0.014,-0.008 0.039,-0.015 0.076,-0.023 z m -2.984,-1.618 c 0,0.113 -0.147,0.295 -0.439,0.543 -0.293,0.249 -0.439,0.392 -0.439,0.428 0,0.102 0.238,0.334 0.713,0.697 -0.019,0.033 -0.108,0.119 -0.269,0.258 -0.161,0.138 -0.254,0.208 -0.28,0.208 -0.025,0 -0.081,-0.031 -0.167,-0.093 -0.086,-0.063 -0.179,-0.143 -0.278,-0.241 -0.164,-0.165 -0.289,-0.361 -0.373,-0.587 -0.07,-0.187 -0.104,-0.359 -0.104,-0.516 0,-0.106 0.026,-0.232 0.076,-0.378 0.052,-0.147 0.123,-0.292 0.215,-0.434 0.048,-0.073 0.165,-0.208 0.351,-0.406 0.208,-0.219 0.34,-0.329 0.395,-0.329 0.011,0 0.055,0.052 0.132,0.154 0.062,0.087 0.126,0.175 0.192,0.263 0.015,0.014 0.06,0.079 0.137,0.191 0.092,0.136 0.138,0.217 0.138,0.242 z m -0.604,0.313 c 0,-0.023 -0.035,-0.088 -0.104,-0.198 -0.096,-0.149 -0.178,-0.271 -0.248,-0.362 l -0.055,0 c -0.036,0.096 -0.067,0.188 -0.093,0.277 -0.026,0.09 -0.038,0.156 -0.038,0.2 0,0.117 0.013,0.223 0.041,0.316 0.027,0.093 0.064,0.14 0.112,0.14 0.044,0 0.119,-0.055 0.226,-0.164 0.106,-0.11 0.159,-0.18 0.159,-0.209 z m 1.869,-0.126 c 0,-0.325 -0.307,-0.537 -0.22,-0.598 0.061,-0.044 0.122,-0.092 0.225,-0.159 0.102,-0.066 0.207,-0.133 0.313,-0.203 0.044,0 0.104,0.06 0.181,0.181 0.092,0.142 0.137,0.291 0.137,0.444 0,0.191 -0.075,0.351 -0.227,0.48 -0.152,0.13 -0.228,0.215 -0.228,0.256 0,0.018 0.044,0.087 0.132,0.205 0.088,0.119 0.138,0.197 0.151,0.233 0.013,0.037 0.041,0.163 0.085,0.379 0.003,0.029 0.013,0.065 0.027,0.109 0.015,0.044 0.048,0.09 0.099,0.138 0.051,0.047 0.077,0.08 0.077,0.099 -0.08,0.091 -0.143,0.158 -0.187,0.202 -0.135,0.135 -0.235,0.203 -0.302,0.203 -0.164,0 -0.292,-0.237 -0.384,-0.712 -0.051,-0.268 -0.112,-0.443 -0.181,-0.527 l -0.071,0 c -0.015,0.014 -0.022,0.033 -0.022,0.055 l 0,1.168 -0.763,0 c 0,-0.846 0,-1.604 0,-2.45 0,-0.11 -0.012,-0.249 0.092,-0.289 l 0.694,-0.289 -0.001,1.52 c 0.117,-0.015 0.212,-0.077 0.285,-0.187 0.059,-0.088 0.088,-0.174 0.088,-0.258 z"
           id="path3115"
           inkscape:connector-curvature="0" />
      </g>
    </g>
  </g>
</svg>
